<?xml version="1.0" encoding="UTF-8"?><svg id="Layer_1" xmlns="http://www.w3.org/2000/svg" viewBox="0 0 500 200"><defs><style>.cls-1{opacity:.06;}.cls-2{stroke-width:0px;}</style></defs><path class="cls-2" d="m56.18,105.65c0,1.93,1.83,2.89,5.5,2.89h14.37c.81,0,1.22.46,1.22,1.37s-.41,1.35-1.22,1.35h-14.49c-5.86,0-8.79-1.82-8.79-5.45v-11.58c0-3.74,3.03-5.6,9.09-5.6h3.96c.78,0,1.17.46,1.17,1.39,0,.88-.39,1.32-1.17,1.32h-2.69c-4.63,0-6.95.96-6.95,2.89v11.43Zm19.87-6.97c.78,0,1.17.46,1.17,1.38s-.39,1.33-1.17,1.33h-17.11c-1,0-1.49-.44-1.49-1.33s.5-1.38,1.49-1.38h17.11Z"/><path class="cls-2" d="m129.87,116.32l-41.84-36.51c-.58-.49-1.2-.73-1.87-.73-.79,0-1.47.29-2.05.86-.58.58-.87,1.22-.87,1.92s.29,1.25.87,1.73l18.82,16.36-18.82,16.37c-.3.24-.52.51-.64.8-.12.28-.18.56-.18.84,0,.36.08.71.25,1.05.17.33.39.63.66.89.27.25.59.47.93.63.35.17.71.25,1.07.25.31,0,.61-.05.92-.15.3-.11.59-.29.86-.53l19.01-16.5,18.96,16.5c.24.24.52.41.82.5.31.09.61.14.91.14.4,0,.78-.07,1.14-.21.37-.13.7-.32.98-.57.29-.24.53-.52.71-.84s.27-.66.27-1.03c0-.6-.3-1.2-.91-1.77Z"/><path class="cls-2" d="m161.25,93.95c0-1.74-1.75-2.61-5.25-2.61h-17.01c-.95,0-1.42-.45-1.42-1.35s.47-1.37,1.42-1.37h16.58c5.99,0,8.99,1.68,8.99,5.03v3.98c0,3.52-3.06,5.28-9.19,5.28h-13.92c-.31,0-.47.2-.47.6v6.47c0,.95-.57,1.42-1.72,1.42s-1.69-.47-1.69-1.42v-6.8c0-1.99,1.55-2.99,4.66-2.99h13.57c3.64,0,5.45-.91,5.45-2.74v-3.51Z"/><path class="cls-2" d="m185.33,105.65c0,1.93,1.83,2.89,5.5,2.89h14.37c.81,0,1.22.46,1.22,1.37s-.41,1.35-1.22,1.35h-14.49c-5.86,0-8.79-1.82-8.79-5.45v-11.58c0-3.74,3.03-5.6,9.09-5.6h3.96c.78,0,1.17.46,1.17,1.39,0,.88-.39,1.32-1.17,1.32h-2.69c-4.63,0-6.95.96-6.95,2.89v11.43Zm19.87-6.97c.78,0,1.17.46,1.17,1.38s-.39,1.33-1.17,1.33h-17.11c-1,0-1.49-.44-1.49-1.33s.5-1.38,1.49-1.38h17.11Z"/><path class="cls-2" d="m259.62,89.93v4.46c0,6.57-5.26,9.85-15.77,9.85h-15.77l26.8,11.48c.49.22.84.52,1.05.92.21.39.32.8.32,1.23,0,.73-.25,1.42-.75,2.07-.51.65-1.14.98-1.89.98-.34,0-.69-.09-1.05-.27l-34.24-15.77c-.51-.22-.91-.55-1.18-1.01-.27-.45-.41-.94-.41-1.45,0-.76.29-1.46.86-2.1.58-.64,1.4-.96,2.47-.96h24.38c6.05,0,9.07-1.47,9.07-4.42v-5.38c0-3.55-3.35-5.33-10.07-5.33h-114.33l-12.91,11.35c-.67.58-1.38.86-2.14.86s-1.43-.25-1.99-.77-.84-1.12-.84-1.82c0-.34.07-.67.23-.98.15-.32.41-.65.77-.98l13.63-12.04c.76-.66,1.03-.53,1.76-.53.31,0,.67-.03,1.03-.03.16-.02.34-.03.52-.03h113.31c11.43,0,17.14,3.56,17.14,10.67Z"/><path class="cls-2" d="m271.4,109.98c0,.91-.57,1.37-1.72,1.37s-1.69-.46-1.69-1.37v-20.12c0-.93.59-1.39,1.77-1.39,1.1,0,1.64.46,1.64,1.39v20.12Z"/><path class="cls-2" d="m294.68,105.65c0,1.93,1.83,2.89,5.5,2.89h14.37c.81,0,1.22.46,1.22,1.37s-.41,1.35-1.22,1.35h-14.49c-5.86,0-8.79-1.82-8.79-5.45v-11.58c0-3.74,3.03-5.6,9.09-5.6h3.96c.78,0,1.17.46,1.17,1.39,0,.88-.39,1.32-1.17,1.32h-2.69c-4.63,0-6.95.96-6.95,2.89v11.43Zm19.87-6.97c.78,0,1.17.46,1.17,1.38s-.39,1.33-1.17,1.33h-17.11c-1,0-1.49-.44-1.49-1.33s.5-1.38,1.49-1.38h17.11Z"/><path class="cls-2" d="m334.09,94.69c0-4.15,3.71-6.23,11.13-6.23h5.08c7.02,0,10.53,2.08,10.53,6.23v15.14c0,.93-.56,1.39-1.68,1.39s-1.73-.46-1.73-1.39v-14.87c0-2.52-2.21-3.79-6.64-3.79h-6.12c-4.83,0-7.24,1.25-7.24,3.76v14.89c0,.93-.57,1.39-1.72,1.39-1.08,0-1.62-.46-1.62-1.39v-15.14Z"/><path class="cls-2" d="m389.87,91.33c-3.77,0-5.65.87-5.65,2.61v11.55c0,2.03,2.07,3.04,6.2,3.04h12.43c.83,0,1.25.45,1.25,1.34s-.42,1.37-1.25,1.37h-12.87c-6.06,0-9.09-1.89-9.09-5.68v-11.63c0-3.55,2.97-5.33,8.92-5.33h4.71c.83,0,1.25.45,1.25,1.34s-.42,1.37-1.25,1.37h-4.63Z"/><path class="cls-2" d="m426.14,105.65c0,1.93,1.83,2.89,5.5,2.89h14.37c.81,0,1.22.46,1.22,1.37s-.41,1.35-1.22,1.35h-14.49c-5.86,0-8.79-1.82-8.79-5.45v-11.58c0-3.74,3.03-5.6,9.09-5.6h3.96c.78,0,1.17.46,1.17,1.39,0,.88-.39,1.32-1.17,1.32h-2.69c-4.63,0-6.95.96-6.95,2.89v11.43Zm19.87-6.97c.78,0,1.17.46,1.17,1.38s-.39,1.33-1.17,1.33h-17.11c-1,0-1.49-.44-1.49-1.33s.5-1.38,1.49-1.38h17.11Z"/><g class="cls-1"><path class="cls-2" d="m51.18,107.65c0,1.93,1.83,2.89,5.5,2.89h14.37c.81,0,1.22.46,1.22,1.37s-.41,1.35-1.22,1.35h-14.49c-5.86,0-8.79-1.82-8.79-5.45v-11.58c0-3.74,3.03-5.6,9.09-5.6h3.96c.78,0,1.17.46,1.17,1.39,0,.88-.39,1.32-1.17,1.32h-2.69c-4.63,0-6.95.96-6.95,2.89v11.43Zm19.87-6.97c.78,0,1.17.46,1.17,1.38s-.39,1.33-1.17,1.33h-17.11c-1,0-1.49-.44-1.49-1.33s.5-1.38,1.49-1.38h17.11Z"/><path class="cls-2" d="m124.87,118.32l-41.84-36.51c-.58-.49-1.2-.73-1.87-.73-.79,0-1.47.29-2.05.86-.58.58-.87,1.22-.87,1.92s.29,1.25.87,1.73l18.82,16.36-18.82,16.37c-.3.24-.52.51-.64.8-.12.28-.18.56-.18.84,0,.36.08.71.25,1.05.17.33.39.63.66.89.27.25.59.47.93.63.35.17.71.25,1.07.25.31,0,.61-.05.92-.15.3-.11.59-.29.86-.53l19.01-16.5,18.96,16.5c.24.24.52.41.82.5.31.09.61.14.91.14.4,0,.78-.07,1.14-.21.37-.13.7-.32.98-.57.29-.24.53-.52.71-.84s.27-.66.27-1.03c0-.6-.3-1.2-.91-1.77Z"/><path class="cls-2" d="m156.25,95.95c0-1.74-1.75-2.61-5.25-2.61h-17.01c-.95,0-1.42-.45-1.42-1.35s.47-1.37,1.42-1.37h16.58c5.99,0,8.99,1.68,8.99,5.03v3.98c0,3.52-3.06,5.28-9.19,5.28h-13.92c-.31,0-.47.2-.47.6v6.47c0,.95-.57,1.42-1.72,1.42s-1.69-.47-1.69-1.42v-6.8c0-1.99,1.55-2.99,4.66-2.99h13.57c3.64,0,5.45-.91,5.45-2.74v-3.51Z"/><path class="cls-2" d="m180.33,107.65c0,1.93,1.83,2.89,5.5,2.89h14.37c.81,0,1.22.46,1.22,1.37s-.41,1.35-1.22,1.35h-14.49c-5.86,0-8.79-1.82-8.79-5.45v-11.58c0-3.74,3.03-5.6,9.09-5.6h3.96c.78,0,1.17.46,1.17,1.39,0,.88-.39,1.32-1.17,1.32h-2.69c-4.63,0-6.95.96-6.95,2.89v11.43Zm19.87-6.97c.78,0,1.17.46,1.17,1.38s-.39,1.33-1.17,1.33h-17.11c-1,0-1.49-.44-1.49-1.33s.5-1.38,1.49-1.38h17.11Z"/><path class="cls-2" d="m254.62,91.93v4.46c0,6.57-5.26,9.85-15.77,9.85h-15.77l26.8,11.48c.49.22.84.52,1.05.92.21.39.32.8.32,1.23,0,.73-.25,1.42-.75,2.07-.51.65-1.14.98-1.89.98-.34,0-.69-.09-1.05-.27l-34.24-15.77c-.51-.22-.91-.55-1.18-1.01-.27-.45-.41-.94-.41-1.45,0-.76.29-1.46.86-2.1.58-.64,1.4-.96,2.47-.96h24.38c6.05,0,9.07-1.47,9.07-4.42v-5.38c0-3.55-3.35-5.33-10.07-5.33h-114.33l-12.91,11.35c-.67.58-1.38.86-2.14.86s-1.43-.25-1.99-.77-.84-1.12-.84-1.82c0-.34.07-.67.23-.98.15-.32.41-.65.77-.98l13.63-12.04c.76-.66,1.03-.53,1.76-.53.31,0,.67-.03,1.03-.03.16-.02.34-.03.52-.03h113.31c11.43,0,17.14,3.56,17.14,10.67Z"/><path class="cls-2" d="m266.4,111.98c0,.91-.57,1.37-1.72,1.37s-1.69-.46-1.69-1.37v-20.12c0-.93.59-1.39,1.77-1.39,1.1,0,1.64.46,1.64,1.39v20.12Z"/><path class="cls-2" d="m289.68,107.65c0,1.93,1.83,2.89,5.5,2.89h14.37c.81,0,1.22.46,1.22,1.37s-.41,1.35-1.22,1.35h-14.49c-5.86,0-8.79-1.82-8.79-5.45v-11.58c0-3.74,3.03-5.6,9.09-5.6h3.96c.78,0,1.17.46,1.17,1.39,0,.88-.39,1.32-1.17,1.32h-2.69c-4.63,0-6.95.96-6.95,2.89v11.43Zm19.87-6.97c.78,0,1.17.46,1.17,1.38s-.39,1.33-1.17,1.33h-17.11c-1,0-1.49-.44-1.49-1.33s.5-1.38,1.49-1.38h17.11Z"/><path class="cls-2" d="m329.09,96.69c0-4.15,3.71-6.23,11.13-6.23h5.08c7.02,0,10.53,2.08,10.53,6.23v15.14c0,.93-.56,1.39-1.68,1.39s-1.73-.46-1.73-1.39v-14.87c0-2.52-2.21-3.79-6.64-3.79h-6.12c-4.83,0-7.24,1.25-7.24,3.76v14.89c0,.93-.57,1.39-1.72,1.39-1.08,0-1.62-.46-1.62-1.39v-15.14Z"/><path class="cls-2" d="m384.87,93.33c-3.77,0-5.65.87-5.65,2.61v11.55c0,2.03,2.07,3.04,6.2,3.04h12.43c.83,0,1.25.45,1.25,1.34s-.42,1.37-1.25,1.37h-12.87c-6.06,0-9.09-1.89-9.09-5.68v-11.63c0-3.55,2.97-5.33,8.92-5.33h4.71c.83,0,1.25.45,1.25,1.34s-.42,1.37-1.25,1.37h-4.63Z"/><path class="cls-2" d="m421.14,107.65c0,1.93,1.83,2.89,5.5,2.89h14.37c.81,0,1.22.46,1.22,1.37s-.41,1.35-1.22,1.35h-14.49c-5.86,0-8.79-1.82-8.79-5.45v-11.58c0-3.74,3.03-5.6,9.09-5.6h3.96c.78,0,1.17.46,1.17,1.39,0,.88-.39,1.32-1.17,1.32h-2.69c-4.63,0-6.95.96-6.95,2.89v11.43Zm19.87-6.97c.78,0,1.17.46,1.17,1.38s-.39,1.33-1.17,1.33h-17.11c-1,0-1.49-.44-1.49-1.33s.5-1.38,1.49-1.38h17.11Z"/></g></svg>