<?xml version="1.0" encoding="UTF-8"?><svg id="Layer_1" xmlns="http://www.w3.org/2000/svg" xmlns:xlink="http://www.w3.org/1999/xlink" viewBox="0 0 500 200"><defs><style>.cls-1{fill:url(#linear-gradient);}.cls-1,.cls-2,.cls-3,.cls-4{stroke-width:0px;}.cls-2{opacity:.09;}.cls-4{fill:url(#linear-gradient-2);}</style><linearGradient id="linear-gradient" x1="15.43" y1="90.01" x2="333.24" y2="156.2" gradientUnits="userSpaceOnUse"><stop offset="0" stop-color="aqua"/><stop offset="1" stop-color="blue"/></linearGradient><linearGradient id="linear-gradient-2" x1="22.45" y1="56.27" x2="340.26" y2="122.46" xlink:href="#linear-gradient"/></defs><path class="cls-2" d="m22.46,108.23c0,1.93,1.83,2.89,5.5,2.89h14.37c.81,0,1.22.46,1.22,1.37s-.41,1.34-1.22,1.34h-14.49c-5.86,0-8.79-1.82-8.79-5.45v-11.58c0-3.74,3.03-5.6,9.09-5.6h3.96c.78,0,1.17.46,1.17,1.39,0,.88-.39,1.32-1.17,1.32h-2.69c-4.63,0-6.95.96-6.95,2.89v11.43Zm19.87-6.97c.78,0,1.17.46,1.17,1.38s-.39,1.33-1.17,1.33h-17.11c-1,0-1.49-.44-1.49-1.33s.5-1.38,1.49-1.38h17.11Z"/><path class="cls-2" d="m105.55,120.33c.66.63.99,1.27.99,1.93,0,.4-.1.77-.3,1.11-.2.35-.45.65-.77.92-.31.27-.67.47-1.07.62-.4.15-.81.22-1.24.22-.33,0-.66-.05-.99-.15s-.63-.28-.89-.54l-20.62-17.94-20.67,17.94c-.3.26-.61.45-.94.57s-.66.17-.99.17c-.4,0-.79-.09-1.16-.27-.38-.18-.72-.41-1.02-.69-.3-.28-.54-.6-.72-.97-.18-.36-.27-.74-.27-1.14,0-.3.07-.6.2-.92.13-.31.36-.6.69-.87l20.47-17.79-20.47-17.79c-.63-.53-.94-1.16-.94-1.88s.31-1.45.94-2.08c.63-.63,1.37-.94,2.23-.94.72,0,1.4.26,2.03.79l45.5,39.7Zm-14.87-22.55c-.73.63-1.5.94-2.33.94s-1.55-.28-2.16-.84c-.61-.56-.92-1.22-.92-1.98,0-.36.08-.72.25-1.07.17-.35.45-.7.84-1.07l14.82-13.08c.83-.72,2.02-.68,2.81-.68s1.14-.1,1.7.51c.56.61.84,1.3.84,2.06,0,.37-.08.74-.25,1.12-.17.38-.45.75-.84,1.12l-14.77,12.99Z"/><path class="cls-2" d="m141.3,96.52c0-1.74-1.75-2.62-5.25-2.62h-17.01c-.95,0-1.42-.45-1.42-1.34s.47-1.37,1.42-1.37h16.58c5.99,0,8.99,1.68,8.99,5.03v3.98c0,3.52-3.06,5.28-9.19,5.28h-13.92c-.32,0-.47.2-.47.6v6.47c0,.95-.57,1.42-1.72,1.42s-1.69-.47-1.69-1.42v-6.8c0-1.99,1.55-2.99,4.66-2.99h13.57c3.64,0,5.45-.91,5.45-2.74v-3.51Z"/><path class="cls-2" d="m172.26,108.23c0,1.93,1.83,2.89,5.5,2.89h14.37c.81,0,1.22.46,1.22,1.37s-.41,1.34-1.22,1.34h-14.49c-5.86,0-8.79-1.82-8.79-5.45v-11.58c0-3.74,3.03-5.6,9.09-5.6h3.96c.78,0,1.17.46,1.17,1.39,0,.88-.39,1.32-1.17,1.32h-2.69c-4.63,0-6.95.96-6.95,2.89v11.43Zm19.87-6.97c.78,0,1.17.46,1.17,1.38s-.39,1.33-1.17,1.33h-17.11c-1,0-1.49-.44-1.49-1.33s.5-1.38,1.49-1.38h17.11Z"/><path class="cls-2" d="m247.36,91.24c0-3.87-3.65-5.8-10.95-5.8H104.5c-1.88,0-2.83-.86-2.83-2.58,0-1.88.94-2.82,2.83-2.82h130.87c12.42,0,18.64,3.87,18.64,11.6v4.86c0,7.14-5.72,10.71-17.15,10.71h-17.15l29.14,12.49c.53.23.91.56,1.14.99.23.43.35.87.35,1.34,0,.79-.27,1.55-.82,2.25-.55.71-1.23,1.07-2.06,1.07-.36,0-.74-.1-1.14-.3l-37.22-17.15c-.56-.23-.99-.59-1.29-1.09s-.45-1.02-.45-1.59c0-.83.31-1.59.94-2.28s1.52-1.04,2.68-1.04h26.52c6.57,0,9.86-1.6,9.86-4.81v-5.85Z"/><path class="cls-2" d="m272.1,112.56c0,.91-.57,1.37-1.72,1.37s-1.69-.46-1.69-1.37v-20.12c0-.93.59-1.39,1.77-1.39,1.1,0,1.64.46,1.64,1.39v20.12Z"/><path class="cls-2" d="m302.27,108.23c0,1.93,1.83,2.89,5.5,2.89h14.37c.81,0,1.22.46,1.22,1.37s-.41,1.34-1.22,1.34h-14.49c-5.86,0-8.79-1.82-8.79-5.45v-11.58c0-3.74,3.03-5.6,9.09-5.6h3.96c.78,0,1.17.46,1.17,1.39,0,.88-.39,1.32-1.17,1.32h-2.69c-4.63,0-6.95.96-6.95,2.89v11.43Zm19.87-6.97c.78,0,1.17.46,1.17,1.38s-.39,1.33-1.17,1.33h-17.11c-1,0-1.49-.44-1.49-1.33s.5-1.38,1.49-1.38h17.11Z"/><path class="cls-2" d="m348.56,97.27c0-4.15,3.71-6.23,11.13-6.23h5.08c7.02,0,10.53,2.08,10.53,6.23v15.14c0,.93-.56,1.39-1.68,1.39s-1.73-.46-1.73-1.39v-14.87c0-2.52-2.21-3.79-6.64-3.79h-6.12c-4.83,0-7.24,1.25-7.24,3.76v14.89c0,.93-.57,1.39-1.72,1.39-1.08,0-1.62-.46-1.62-1.39v-15.14Z"/><path class="cls-2" d="m411.22,93.91c-3.77,0-5.65.87-5.65,2.62v11.55c0,2.03,2.07,3.04,6.2,3.04h12.43c.83,0,1.25.45,1.25,1.34s-.42,1.37-1.25,1.37h-12.87c-6.06,0-9.09-1.89-9.09-5.68v-11.63c0-3.55,2.97-5.33,8.92-5.33h4.71c.83,0,1.25.45,1.25,1.34s-.42,1.37-1.25,1.37h-4.63Z"/><path class="cls-2" d="m454.38,108.23c0,1.93,1.83,2.89,5.5,2.89h14.37c.81,0,1.22.46,1.22,1.37s-.41,1.34-1.22,1.34h-14.49c-5.86,0-8.79-1.82-8.79-5.45v-11.58c0-3.74,3.03-5.6,9.09-5.6h3.96c.78,0,1.17.46,1.17,1.39,0,.88-.39,1.32-1.17,1.32h-2.69c-4.63,0-6.95.96-6.95,2.89v11.43Zm19.87-6.97c.78,0,1.17.46,1.17,1.38s-.39,1.33-1.17,1.33h-17.11c-1,0-1.49-.44-1.49-1.33s.5-1.38,1.49-1.38h17.11Z"/><path class="cls-3" d="m25.46,105.23c0,1.93,1.83,2.89,5.5,2.89h14.37c.81,0,1.22.46,1.22,1.37s-.41,1.34-1.22,1.34h-14.49c-5.86,0-8.79-1.82-8.79-5.45v-11.58c0-3.74,3.03-5.6,9.09-5.6h3.96c.78,0,1.17.46,1.17,1.39,0,.88-.39,1.32-1.17,1.32h-2.69c-4.63,0-6.95.96-6.95,2.89v11.43Zm19.87-6.97c.78,0,1.17.46,1.17,1.38s-.39,1.33-1.17,1.33h-17.11c-1,0-1.49-.44-1.49-1.33s.5-1.38,1.49-1.38h17.11Z"/><path class="cls-1" d="m108.55,117.33l-45.49-39.7c-.63-.53-1.31-.79-2.04-.79-.86,0-1.6.31-2.23.94-.62.63-.94,1.32-.94,2.08s.32,1.36.94,1.88l20.47,17.8-20.47,17.79c-.33.27-.56.55-.69.87-.13.31-.2.62-.2.91,0,.4.09.78.28,1.14.18.37.41.69.71.97.3.28.64.51,1.02.69.38.18.77.28,1.16.28.33,0,.66-.06.99-.18.33-.11.65-.3.95-.57l20.66-17.94,20.62,17.94c.26.27.56.45.89.55.33.1.66.15.99.15.43,0,.85-.08,1.24-.23.4-.15.75-.35,1.07-.62.31-.26.57-.57.77-.91.19-.35.29-.72.29-1.12,0-.66-.33-1.3-.99-1.93Z"/><path class="cls-3" d="m144.3,93.52c0-1.74-1.75-2.62-5.25-2.62h-17.01c-.95,0-1.42-.45-1.42-1.34s.47-1.37,1.42-1.37h16.58c5.99,0,8.99,1.68,8.99,5.03v3.98c0,3.52-3.06,5.28-9.19,5.28h-13.92c-.32,0-.47.2-.47.6v6.47c0,.95-.57,1.42-1.72,1.42s-1.69-.47-1.69-1.42v-6.8c0-1.99,1.55-2.99,4.66-2.99h13.57c3.64,0,5.45-.91,5.45-2.74v-3.51Z"/><path class="cls-3" d="m175.26,105.23c0,1.93,1.83,2.89,5.5,2.89h14.37c.81,0,1.22.46,1.22,1.37s-.41,1.34-1.22,1.34h-14.49c-5.86,0-8.79-1.82-8.79-5.45v-11.58c0-3.74,3.03-5.6,9.09-5.6h3.96c.78,0,1.17.46,1.17,1.39,0,.88-.39,1.32-1.17,1.32h-2.69c-4.63,0-6.95.96-6.95,2.89v11.43Zm19.87-6.97c.78,0,1.17.46,1.17,1.38s-.39,1.33-1.17,1.33h-17.11c-1,0-1.49-.44-1.49-1.33s.5-1.38,1.49-1.38h17.11Z"/><path class="cls-4" d="m257,88.63v4.86c0,7.14-5.72,10.71-17.15,10.71h-17.15l29.15,12.49c.52.23.91.56,1.14.99s.34.87.34,1.33c0,.8-.27,1.55-.81,2.26-.55.71-1.24,1.07-2.06,1.07-.37,0-.74-.1-1.14-.3l-37.22-17.15c-.56-.23-.99-.59-1.29-1.09-.3-.5-.45-1.02-.45-1.59,0-.82.32-1.58.94-2.28.63-.69,1.52-1.04,2.68-1.04h26.52c6.57,0,9.86-1.6,9.86-4.8v-5.85c0-3.87-3.65-5.8-10.95-5.8H107.71l-14.03,12.34c-.72.63-1.5.94-2.32.94s-1.55-.28-2.16-.84c-.61-.56-.92-1.22-.92-1.98,0-.37.08-.72.25-1.07.17-.35.45-.7.84-1.07l14.82-13.08c.83-.73,2.02-.68,2.81-.68.45,0,.75-.03,1.02.04h130.34c12.43,0,18.64,3.86,18.64,11.59Z"/><path class="cls-3" d="m275.1,109.56c0,.91-.57,1.37-1.72,1.37s-1.69-.46-1.69-1.37v-20.12c0-.93.59-1.39,1.77-1.39,1.1,0,1.64.46,1.64,1.39v20.12Z"/><path class="cls-3" d="m305.27,105.23c0,1.93,1.83,2.89,5.5,2.89h14.37c.81,0,1.22.46,1.22,1.37s-.41,1.34-1.22,1.34h-14.49c-5.86,0-8.79-1.82-8.79-5.45v-11.58c0-3.74,3.03-5.6,9.09-5.6h3.96c.78,0,1.17.46,1.17,1.39,0,.88-.39,1.32-1.17,1.32h-2.69c-4.63,0-6.95.96-6.95,2.89v11.43Zm19.87-6.97c.78,0,1.17.46,1.17,1.38s-.39,1.33-1.17,1.33h-17.11c-1,0-1.49-.44-1.49-1.33s.5-1.38,1.49-1.38h17.11Z"/><path class="cls-3" d="m351.56,94.27c0-4.15,3.71-6.23,11.13-6.23h5.08c7.02,0,10.53,2.08,10.53,6.23v15.14c0,.93-.56,1.39-1.68,1.39s-1.73-.46-1.73-1.39v-14.87c0-2.52-2.21-3.79-6.64-3.79h-6.12c-4.83,0-7.24,1.25-7.24,3.76v14.89c0,.93-.57,1.39-1.72,1.39-1.08,0-1.62-.46-1.62-1.39v-15.14Z"/><path class="cls-3" d="m414.22,90.91c-3.77,0-5.65.87-5.65,2.62v11.55c0,2.03,2.07,3.04,6.2,3.04h12.43c.83,0,1.25.45,1.25,1.34s-.42,1.37-1.25,1.37h-12.87c-6.06,0-9.09-1.89-9.09-5.68v-11.63c0-3.55,2.97-5.33,8.92-5.33h4.71c.83,0,1.25.45,1.25,1.34s-.42,1.37-1.25,1.37h-4.63Z"/><path class="cls-3" d="m457.38,105.23c0,1.93,1.83,2.89,5.5,2.89h14.37c.81,0,1.22.46,1.22,1.37s-.41,1.34-1.22,1.34h-14.49c-5.86,0-8.79-1.82-8.79-5.45v-11.58c0-3.74,3.03-5.6,9.09-5.6h3.96c.78,0,1.17.46,1.17,1.39,0,.88-.39,1.32-1.17,1.32h-2.69c-4.63,0-6.95.96-6.95,2.89v11.43Zm19.87-6.97c.78,0,1.17.46,1.17,1.38s-.39,1.33-1.17,1.33h-17.11c-1,0-1.49-.44-1.49-1.33s.5-1.38,1.49-1.38h17.11Z"/></svg>